<mxfile host="app.diagrams.net" modified="2024-04-08T19:00:03.268Z" agent="Mozilla/5.0 (Macintosh; Intel Mac OS X 10_15_7) AppleWebKit/605.1.15 (KHTML, like Gecko) Version/17.2.1 Safari/605.1.15" version="24.2.2" etag="9TTmwjZubGgYHNm7V0oA" type="github">
  <diagram name="Page-1" id="TqCZ4z7ThMNIqhiF5H48">
    <mxGraphModel>
      <root>
        <mxCell id="0" />
        <mxCell id="1" parent="0" />
      </root>
    </mxGraphModel>
  </diagram>
</mxfile>
